<svg width="1154" height="416" viewBox="0 0 1154 416" fill="none" xmlns="http://www.w3.org/2000/svg">
<path d="M161.44 47.936H154.828C122.136 47.936 96.6068 56.2008 78.2405 72.7305C60.2415 88.8929 51.242 117.728 51.242 159.236C51.242 172.827 52.5277 182.377 55.099 187.887C57.6702 193.03 58.9559 195.968 58.9559 196.703C39.1203 196.703 24.2436 192.663 14.3257 184.581C4.77527 176.133 2.73725e-05 162.358 2.73725e-05 143.257C2.73725e-05 117.177 6.42824 93.4845 19.2847 72.1795C32.1411 50.5073 52.5277 33.0593 80.4445 19.8355C108.729 6.61182 144.543 -4.32266e-05 187.887 -4.32266e-05C212.131 -4.32266e-05 238.211 2.20391 266.128 6.61181C289.637 10.6524 310.574 12.6727 328.941 12.6727C352.45 12.6727 373.754 8.81578 392.855 1.10192C392.121 24.9781 386.06 42.6098 374.673 53.9969C363.286 65.384 346.389 71.0776 323.982 71.0776C312.227 71.0776 300.473 70.1593 288.718 68.3226C276.964 66.486 260.251 63.3637 238.578 58.9558L162.542 412.691H83.1994L161.44 47.936ZM316.513 415.997C298.882 415.997 284.556 410.487 273.536 399.467C262.884 388.447 257.557 371.918 257.557 349.878C257.557 340.695 259.027 328.757 261.965 314.064L295.025 159.236H276.842L281.25 137.196H299.433L315.962 61.1598L397.509 50.14L378.775 137.196H411.834L407.426 159.236H374.367L339.104 324.533C337.634 330.043 336.9 335.92 336.9 342.164C336.9 349.511 338.553 354.837 341.859 358.143C345.532 361.082 351.409 362.551 359.49 362.551C370.143 362.551 380.061 358.143 389.244 349.327C398.427 340.144 405.039 328.39 409.079 314.064H432.221C418.63 353.735 401.182 380.734 379.877 395.059C358.572 409.018 337.451 415.997 316.513 415.997ZM463.408 415.997C445.776 415.997 431.45 410.487 420.431 399.467C409.778 388.447 404.452 371.918 404.452 349.878C404.452 340.695 405.921 328.757 408.86 314.064L446.327 137.196H525.67L485.998 324.533C484.896 330.043 484.345 335.185 484.345 339.96C484.345 355.021 489.855 362.551 500.875 362.551C511.16 362.551 519.976 358.327 527.323 349.878C534.669 341.062 540.546 329.124 544.954 314.064L582.422 137.196H661.764L622.093 324.533C620.623 330.043 619.889 335.92 619.889 342.164C619.889 349.511 621.542 354.837 624.848 358.143C628.521 361.082 634.398 362.551 642.479 362.551C652.764 362.551 661.58 358.143 668.927 349.327C676.641 340.511 682.702 328.757 687.109 314.064H710.251C696.66 353.735 679.763 380.734 659.56 395.059C639.724 409.018 619.705 415.997 599.502 415.997C583.707 415.997 571.034 411.589 561.484 402.773C552.301 393.957 546.791 380.917 544.954 363.653C532.465 383.856 519.241 397.631 505.283 404.977C491.692 412.324 477.734 415.997 463.408 415.997ZM741.593 415.997C723.961 415.997 709.635 410.487 698.616 399.467C687.963 388.447 682.637 371.918 682.637 349.878C682.637 340.695 684.106 328.757 687.045 314.064L720.104 159.236H701.922L706.33 137.196H724.512L741.042 61.1598L822.588 50.14L803.855 137.196H836.914L832.506 159.236H799.447L764.183 324.533C762.714 330.043 761.979 335.92 761.979 342.164C761.979 349.511 763.632 354.837 766.938 358.143C770.612 361.082 776.489 362.551 784.57 362.551C795.222 362.551 805.14 358.143 814.323 349.327C823.507 340.144 830.118 328.39 834.159 314.064H857.301C843.71 353.735 826.262 380.734 804.957 395.059C783.652 409.018 762.53 415.997 741.593 415.997ZM925.955 107.443C913.833 107.443 903.548 103.219 895.099 94.7701C886.651 86.3216 882.427 76.0365 882.427 63.9147C882.427 51.7929 886.651 41.5078 895.099 33.0593C903.548 24.2435 913.833 19.8355 925.955 19.8355C938.076 19.8355 948.362 24.2435 956.81 33.0593C965.626 41.5078 970.034 51.7929 970.034 63.9147C970.034 76.0365 965.626 86.3216 956.81 94.7701C948.362 103.219 938.076 107.443 925.955 107.443ZM888.487 415.997C870.856 415.997 856.53 410.487 845.51 399.467C834.858 388.447 829.532 371.918 829.532 349.878C829.532 340.695 831.001 328.757 833.939 314.064L871.407 137.196H950.749L911.078 324.533C909.609 330.043 908.874 335.92 908.874 342.164C908.874 349.511 910.527 354.837 913.833 358.143C917.506 361.082 923.383 362.551 931.465 362.551C942.117 362.551 952.035 358.143 961.218 349.327C970.401 340.144 977.013 328.39 981.054 314.064H1004.2C990.604 353.735 973.156 380.734 951.851 395.059C930.546 409.018 909.425 415.997 888.487 415.997ZM1043.65 415.997C1026.02 415.997 1011.14 412.691 999.017 406.079C986.895 399.1 977.895 390.284 972.018 379.632C966.141 368.612 963.202 357.225 963.202 345.47C963.202 333.348 966.141 322.88 972.018 314.064C977.528 304.881 984.324 298.269 992.405 294.228C1006.73 268.515 1019.22 242.619 1029.87 216.539C1040.52 190.091 1050.63 161.623 1060.18 131.135L1141.72 120.116C1143.56 167.133 1146.68 218.008 1151.09 272.74C1152.93 294.779 1153.84 310.758 1153.84 320.676C1153.84 343.083 1148.15 361.449 1136.76 375.775C1125.38 390.1 1111.23 400.385 1094.34 406.63C1077.81 412.875 1060.91 415.997 1043.65 415.997ZM1026.02 372.469C1039.61 372.469 1050.99 368.428 1060.18 360.347C1069.36 352.266 1073.95 339.226 1073.95 321.227C1073.95 310.207 1072.85 294.779 1070.65 274.944C1066.97 233.068 1064.58 204.968 1063.48 190.642C1054.67 219.661 1039.79 254.373 1018.85 294.779C1027.3 299.187 1031.53 305.615 1031.53 314.064C1031.53 321.043 1029.14 327.288 1024.36 332.797C1019.95 338.307 1014.26 341.062 1007.28 341.062C999.568 341.062 994.609 338.675 992.405 333.899C992.405 347.123 994.976 356.857 1000.12 363.102C1005.63 369.346 1014.26 372.469 1026.02 372.469Z" fill="#FEC907"/>
</svg>
