<svg width="631" height="408" viewBox="0 0 631 408" fill="none" xmlns="http://www.w3.org/2000/svg">
<path d="M1.32745 227.993C-3.6153 245.93 5.22965 259.708 28.1224 255.549C48.4183 230.773 62.7748 227.08 93.679 238.651C112.409 245.664 124.376 217.854 104.605 203.556C56.7157 191.12 34.626 193.937 1.32745 227.993Z" fill="#FEC907"/>
<path d="M182.649 120.888C166.614 120.173 169.641 136.745 150.651 136.745C136.622 136.745 143.887 101.91 143.887 101.91C143.887 101.91 151.084 67.5952 182.649 67.5951C208.663 67.595 219.849 101.91 219.849 101.91C219.849 101.91 229.165 136.745 214.126 136.745C199.087 136.745 197.492 121.549 182.649 120.888Z" fill="#FEC907"/>
<path d="M342.177 118.548C326.142 117.833 329.17 134.405 310.179 134.405C296.151 134.405 303.416 99.5702 303.416 99.5702C303.416 99.5702 310.613 65.255 342.177 65.2549C368.192 65.2549 379.378 99.5702 379.378 99.5702C379.378 99.5702 388.694 134.405 373.655 134.405C358.616 134.405 357.02 119.209 342.177 118.548Z" fill="#FEC907"/>
<path d="M429.787 311.961C451.639 311.961 474.532 308.581 474.532 308.581C474.532 308.581 408.593 437.69 219.329 401.649C75.9891 374.352 49.4543 271.666 49.4543 271.666C47.8935 256.069 68.1848 247.75 81.7123 256.069C81.7123 256.069 122.732 337.514 196.436 356.935C353.304 398.27 416.095 311.961 429.787 311.961Z" fill="#FEC907"/>
<path d="M591.597 108.669C593.938 95.9308 574.948 97.4034 571.306 108.669C538.846 209.078 525.78 243.591 455.281 262.048C455.281 262.048 419.472 266.1 404.032 256.589C385.042 244.89 387.693 220.326 404.032 210.055C436.29 189.778 466.727 236.052 466.727 236.052C479.474 243.851 494.303 231.892 487.279 216.034C487.279 216.034 475.832 168.461 423.283 168.461C378.422 168.461 361.629 211.095 361.629 211.095C361.629 211.095 334.833 285.445 433.168 297.404C573.422 314.46 591.597 108.669 591.597 108.669Z" fill="#FEC907"/>
<path d="M585.093 0.00215878C569.225 -0.494518 524.214 84.8724 538.267 90.9898C554.396 98.0104 563.59 78.7507 582.232 80.5929C598.528 82.2032 607.796 97.2881 624.115 95.9291C649.089 93.8494 599.141 0.44184 585.093 0.00215878Z" fill="#FEC907"/>
</svg>
